<svg xmlns="http://www.w3.org/2000/svg" width="24.001" height="28.097" viewBox="0 0 24.001 28.097">
  <path id="Shape" d="M7.719,28.1H7.678c-2.035-.018-3.573-1.958-4.809-3.853a17.665,17.665,0,0,1-2.8-7.77A10.041,10.041,0,0,1,1.26,10.126,7.277,7.277,0,0,1,7.126,6.58a8.314,8.314,0,0,1,2.936.644,7.059,7.059,0,0,0,2.419.559,5.907,5.907,0,0,0,2.164-.521,8.241,8.241,0,0,1,3.174-.685,7.1,7.1,0,0,1,5.368,2.849,6,6,0,0,0-3.158,5.78,6.358,6.358,0,0,0,1.138,3.216A6.1,6.1,0,0,0,24,20.615a20.231,20.231,0,0,1-1.815,3.406c-1.306,2-2.91,4.054-4.9,4.071h-.044a4.291,4.291,0,0,1-1.955-.523l-.151-.069a5.609,5.609,0,0,0-2.587-.591h-.044a6.193,6.193,0,0,0-2.793.666A4.5,4.5,0,0,1,7.719,28.1Zm4-21.335h0l-.121,0A5.661,5.661,0,0,1,13,2.311,6.6,6.6,0,0,1,17.266,0a6.129,6.129,0,0,1-1.359,4.561A5.567,5.567,0,0,1,11.721,6.763Z" transform="translate(0.001 0)" fill="#0b0b0a"/>
</svg>
