<svg xmlns="http://www.w3.org/2000/svg" width="17.831" height="14.264" viewBox="0 0 17.831 14.264">
  <path id="Path_22" data-name="Path 22" d="M260.431,325.3c1.645-4.037,5.036-6.63,8.818-6.63s7.173,2.593,8.817,6.63a1.328,1.328,0,0,1,0,1c-1.644,4.039-5.036,6.63-8.817,6.63s-7.173-2.592-8.818-6.63A1.341,1.341,0,0,1,260.431,325.3Zm8.818,5.984c3.048,0,5.843-2.106,7.266-5.483-1.423-3.375-4.218-5.483-7.266-5.483s-5.843,2.108-7.267,5.483C263.406,329.176,266.2,331.282,269.249,331.282Zm0-2.232a3.252,3.252,0,1,1,3.194-3.251A3.222,3.222,0,0,1,269.249,329.05Zm0-1.65a1.6,1.6,0,1,0-1.574-1.6A1.587,1.587,0,0,0,269.249,327.4Z" transform="translate(-260.333 -318.667)" fill="#92929d" fill-rule="evenodd"/>
</svg>
