<svg id="Group_1" data-name="Group 1" xmlns="http://www.w3.org/2000/svg" width="105.48" height="149.802" viewBox="0 0 105.48 149.802">
  <path id="Path_1" data-name="Path 1" d="M30,57.715V68.467c0,7.5-10.018,7.029-10.018,0V52.942c0-2.413-2.465-4.2-4.983-4.2-2.57,0-5.035,1.783-5.035,4.2V66.317C9.966,74.709,30,78.7,30,91.179v6.714c0,6.924-7.605,10.543-15.054,10.543C7.448,108.435,0,104.921,0,97.893V82.682c0-7.5,10.018-7.029,10.018,0v18.725A4.8,4.8,0,0,0,15,106.442a4.84,4.84,0,0,0,5.035-5.035V86.878C20.036,75.915.1,73.031.1,62.016v-4.3C.1,50.372,7.605,46.7,15.054,46.7,22.554,46.7,30,50.372,30,57.715" transform="translate(0 -22.205)" fill="#ffe617"/>
  <path id="Path_2" data-name="Path 2" d="M155.739,57.925v44.741c0,3.672-2.465,5.455-5.035,5.455-2.465,0-4.983-1.783-4.983-5.455V54.305c0-3.672-2.57-5.665-5.035-5.665s-4.983,1.888-4.983,5.665l.1,45.108v3.252c0,3.672-2.465,5.455-4.983,5.455-2.57,0-5.035-1.783-5.035-5.455V54.305c0-3.777-2.57-5.665-5.035-5.665-2.57,0-5.035,1.888-5.035,5.665v48.36c0,3.672-2.465,5.455-4.983,5.455-2.57,0-5.035-1.783-5.035-5.455V57.925c0-7.186,6.924-11.225,14.372-11.225,3.672,0,7.5.577,10.7,2.675A20.134,20.134,0,0,1,141.629,46.7c7.343,0,14.109,3.934,14.109,11.225" transform="translate(-50.259 -22.205)" fill="#ffe617"/>
  <path id="Path_3" data-name="Path 3" d="M30,178.914v10.753c0,7.5-10.018,7.029-10.018,0V174.141c0-2.413-2.465-4.2-4.983-4.2-2.57,0-5.035,1.783-5.035,4.2v13.375C9.966,195.909,30,199.895,30,212.378v6.714c0,6.924-7.605,10.543-15.054,10.543C7.448,229.635,0,226.121,0,219.092V203.881c0-7.5,10.018-7.029,10.018,0v18.725A4.8,4.8,0,0,0,15,227.642a4.84,4.84,0,0,0,5.035-5.035V208.077C20.036,197.115.1,194.23.1,183.215v-4.3c0-7.343,7.5-11.015,14.949-11.015,7.5-.052,14.949,3.672,14.949,11.015" transform="translate(0 -79.833)" fill="#ffe617"/>
  <path id="Path_4" data-name="Path 4" d="M81.918,175.955V225.05c0,3.672-2.465,5.455-4.983,5.455-2.57,0-5.035-1.783-5.035-5.455V175.955c0-3.672,2.465-5.455,4.983-5.455,2.57,0,5.035,1.783,5.035,5.455" transform="translate(-34.187 -81.07)" fill="#ffe617"/>
  <path id="Path_5" data-name="Path 5" d="M155.739,179.025v44.741c0,3.672-2.465,5.455-5.035,5.455-2.465,0-4.983-1.783-4.983-5.455v-48.36c0-3.672-2.57-5.665-5.035-5.665s-4.983,1.888-4.983,5.665l.1,45.108v3.252c0,3.672-2.465,5.455-4.983,5.455-2.57,0-5.035-1.783-5.035-5.455v-48.36c0-3.777-2.57-5.665-5.035-5.665-2.57,0-5.035,1.888-5.035,5.665v48.36c0,3.672-2.465,5.455-4.983,5.455-2.57,0-5.035-1.783-5.035-5.455V179.025c0-7.186,6.924-11.225,14.372-11.225,3.672,0,7.5.577,10.7,2.675a20.134,20.134,0,0,1,10.857-2.675c7.343,0,14.109,3.934,14.109,11.225" transform="translate(-50.259 -79.786)" fill="#ffe617"/>
  <path id="Path_6" data-name="Path 6" d="M76.971,35.78c6.609,0,6.661-10.28,0-10.28s-6.661,10.28,0,10.28" transform="translate(-34.223 -12.125)" fill="#ffe617"/>
  <path id="Path_7" data-name="Path 7" d="M76.883,49.3c-2.465,0-4.983,1.783-4.983,5.455V103.85c0,3.672,2.465,5.455,5.035,5.455,2.465,0,4.983-1.783,4.983-5.455V54.755c0-3.672-2.465-5.455-5.035-5.455m.052,58.641c-4.983,0-4.983-7.71,0-7.71,4.93,0,4.93,7.71,0,7.71" transform="translate(-34.187 -23.441)" fill="#ffe617"/>
  <path id="Path_8" data-name="Path 8" d="M99.917,28.114h0a1.266,1.266,0,0,1-1.259-1.206,25.6,25.6,0,0,0-51.14,0A1.259,1.259,0,0,1,45,26.855a28.116,28.116,0,0,1,56.176,0,1.211,1.211,0,0,1-1.259,1.259" transform="translate(-21.397)" fill="#ffe617"/>
</svg>
